<svg xmlns="http://www.w3.org/2000/svg" xmlns:xlink="http://www.w3.org/1999/xlink" width="300" zoomAndPan="magnify" viewBox="0 0 224.87999 225" height="300" preserveAspectRatio="xMidYMid meet" version="1.0"><defs><g/><clipPath id="f12283f606"><path d="M 60.867188 1.617188 L 92.992188 1.617188 L 92.992188 159.191406 L 60.867188 159.191406 Z M 60.867188 1.617188 " clip-rule="nonzero"/></clipPath><clipPath id="4735f283ac"><path d="M 125.382812 1.554688 L 157.507812 1.554688 L 157.507812 159.132812 L 125.382812 159.132812 Z M 125.382812 1.554688 " clip-rule="nonzero"/></clipPath></defs><g clip-path="url(#f12283f606)"><path fill="#3c6ca8" d="M 60.867188 78.574219 L 62.609375 78.574219 C 73.074219 78.574219 74.625 72.953125 74.625 61.902344 C 74.625 49.304688 74.046875 38.453125 74.046875 25.273438 C 74.046875 4.148438 82.964844 1.625 92.652344 1.625 L 93.425781 1.625 L 93.425781 4.921875 L 93.042969 4.921875 C 84.515625 4.921875 77.339844 6.085938 77.339844 24.882812 C 77.339844 37.289062 77.921875 49.304688 77.921875 61.320312 C 77.921875 74.113281 75.988281 78.765625 69.203125 80.316406 C 74.816406 82.644531 77.921875 84.96875 77.921875 99.5 C 77.921875 109.386719 77.339844 127.40625 77.339844 140.011719 C 77.339844 155.515625 86.058594 155.894531 92.652344 155.894531 L 93.425781 155.894531 L 93.425781 159.191406 L 92.652344 159.191406 C 83.351562 159.191406 74.046875 157.839844 74.046875 138.847656 C 74.046875 125.863281 74.625 108.808594 74.625 98.726562 C 74.625 89.035156 72.882812 82.0625 62.609375 82.0625 L 60.867188 82.0625 L 60.867188 78.574219 " fill-opacity="1" fill-rule="nonzero"/></g><g clip-path="url(#4735f283ac)"><path fill="#3c6ca8" d="M 157.507812 82.175781 L 155.765625 82.175781 C 145.300781 82.175781 143.75 87.796875 143.75 98.847656 C 143.75 111.445312 144.332031 122.296875 144.332031 135.472656 C 144.332031 156.597656 135.414062 159.121094 125.722656 159.121094 L 124.949219 159.121094 L 124.949219 155.828125 L 125.332031 155.828125 C 133.859375 155.828125 141.035156 154.664062 141.035156 135.863281 C 141.035156 123.460938 140.453125 111.445312 140.453125 99.429688 C 140.453125 86.632812 142.386719 81.984375 149.171875 80.429688 C 143.558594 78.105469 140.453125 75.78125 140.453125 61.25 C 140.453125 51.359375 141.035156 33.339844 141.035156 20.738281 C 141.035156 5.234375 132.316406 4.851562 125.722656 4.851562 L 124.949219 4.851562 L 124.949219 1.554688 L 125.722656 1.554688 C 135.023438 1.554688 144.332031 2.910156 144.332031 21.898438 C 144.332031 34.886719 143.75 51.941406 143.75 62.023438 C 143.75 71.710938 145.492188 78.6875 155.765625 78.6875 L 157.507812 78.6875 L 157.507812 82.175781 " fill-opacity="1" fill-rule="nonzero"/></g><g fill="#000000" fill-opacity="1"><g transform="translate(33.861673, 210.215706)"><g><path d="M 1.59375 -1.484375 C 2.050781 -1.523438 2.453125 -1.5625 2.796875 -1.59375 C 3.148438 -1.625 3.472656 -1.65625 3.765625 -1.6875 C 4.054688 -1.726562 4.34375 -1.753906 4.625 -1.765625 C 4.90625 -1.785156 5.203125 -1.804688 5.515625 -1.828125 C 5.597656 -4.148438 5.679688 -6.441406 5.765625 -8.703125 C 5.847656 -10.972656 5.921875 -13.144531 5.984375 -15.21875 C 6.054688 -17.289062 6.125 -19.222656 6.1875 -21.015625 C 6.257812 -22.816406 6.320312 -24.40625 6.375 -25.78125 C 6.425781 -27.15625 6.460938 -28.285156 6.484375 -29.171875 C 6.515625 -30.066406 6.53125 -30.644531 6.53125 -30.90625 C 6.53125 -31.65625 6.476562 -32.265625 6.375 -32.734375 C 6.269531 -33.203125 6.109375 -33.570312 5.890625 -33.84375 C 5.671875 -34.113281 5.394531 -34.304688 5.0625 -34.421875 C 4.738281 -34.535156 4.359375 -34.628906 3.921875 -34.703125 L 2.765625 -34.859375 L 2.765625 -36.375 C 3.253906 -36.300781 3.78125 -36.226562 4.34375 -36.15625 C 4.8125 -36.101562 5.34375 -36.0625 5.9375 -36.03125 C 6.539062 -36 7.164062 -35.984375 7.8125 -35.984375 C 8.40625 -35.984375 8.972656 -36.015625 9.515625 -36.078125 C 10.054688 -36.148438 10.613281 -36.222656 11.1875 -36.296875 C 11.757812 -36.378906 12.367188 -36.453125 13.015625 -36.515625 C 13.660156 -36.585938 14.378906 -36.625 15.171875 -36.625 C 17.253906 -36.625 19.035156 -36.367188 20.515625 -35.859375 C 22.003906 -35.347656 23.21875 -34.660156 24.15625 -33.796875 C 25.101562 -32.929688 25.789062 -31.941406 26.21875 -30.828125 C 26.65625 -29.722656 26.875 -28.585938 26.875 -27.421875 C 26.875 -25.816406 26.582031 -24.441406 26 -23.296875 C 25.414062 -22.148438 24.703125 -21.175781 23.859375 -20.375 C 23.015625 -19.582031 22.113281 -18.945312 21.15625 -18.46875 C 20.207031 -17.988281 19.367188 -17.632812 18.640625 -17.40625 C 19.960938 -15.019531 21.3125 -12.769531 22.6875 -10.65625 C 24.070312 -8.550781 25.429688 -6.707031 26.765625 -5.125 C 28.097656 -3.539062 29.382812 -2.289062 30.625 -1.375 C 31.875 -0.457031 33.039062 0 34.125 0 L 34.0625 0.921875 C 33.40625 1.023438 32.765625 1.078125 32.140625 1.078125 C 30.703125 1.035156 29.328125 0.6875 28.015625 0.03125 C 26.703125 -0.613281 25.453125 -1.453125 24.265625 -2.484375 C 23.078125 -3.515625 21.960938 -4.675781 20.921875 -5.96875 C 19.890625 -7.269531 18.941406 -8.570312 18.078125 -9.875 C 17.210938 -11.1875 16.445312 -12.4375 15.78125 -13.625 C 15.125 -14.8125 14.578125 -15.820312 14.140625 -16.65625 C 13.691406 -16.625 13.21875 -16.597656 12.71875 -16.578125 C 12.21875 -16.554688 11.691406 -16.546875 11.140625 -16.546875 L 10.0625 -16.546875 C 10.050781 -16.023438 10.03125 -15.421875 10 -14.734375 C 9.976562 -14.046875 9.953125 -13.332031 9.921875 -12.59375 C 9.898438 -11.863281 9.875 -11.125 9.84375 -10.375 C 9.820312 -9.625 9.800781 -8.925781 9.78125 -8.28125 C 9.757812 -7.644531 9.738281 -7.078125 9.71875 -6.578125 C 9.707031 -6.078125 9.703125 -5.707031 9.703125 -5.46875 C 9.703125 -4.71875 9.753906 -4.109375 9.859375 -3.640625 C 9.960938 -3.179688 10.117188 -2.8125 10.328125 -2.53125 C 10.535156 -2.257812 10.804688 -2.0625 11.140625 -1.9375 C 11.472656 -1.8125 11.863281 -1.710938 12.3125 -1.640625 L 13.4375 -1.484375 L 13.4375 0 C 13.050781 -0.0507812 12.585938 -0.113281 12.046875 -0.1875 C 11.597656 -0.21875 11.039062 -0.253906 10.375 -0.296875 C 9.71875 -0.335938 8.953125 -0.359375 8.078125 -0.359375 C 7.191406 -0.359375 6.21875 -0.332031 5.15625 -0.28125 C 4.09375 -0.226562 2.90625 -0.132812 1.59375 0 Z M 10.125 -18.359375 L 11.609375 -18.359375 C 13.785156 -18.359375 15.585938 -18.613281 17.015625 -19.125 C 18.453125 -19.632812 19.585938 -20.304688 20.421875 -21.140625 C 21.253906 -21.984375 21.835938 -22.945312 22.171875 -24.03125 C 22.515625 -25.113281 22.6875 -26.226562 22.6875 -27.375 C 22.6875 -27.9375 22.628906 -28.507812 22.515625 -29.09375 C 22.410156 -29.675781 22.222656 -30.242188 21.953125 -30.796875 C 21.679688 -31.359375 21.320312 -31.882812 20.875 -32.375 C 20.425781 -32.875 19.882812 -33.3125 19.25 -33.6875 C 18.613281 -34.0625 17.863281 -34.359375 17 -34.578125 C 16.144531 -34.796875 15.160156 -34.90625 14.046875 -34.90625 C 13.410156 -34.90625 12.835938 -34.882812 12.328125 -34.84375 C 11.828125 -34.8125 11.273438 -34.742188 10.671875 -34.640625 Z M 10.125 -18.359375 "/></g></g><g transform="translate(66.254053, 210.215706)"><g><path d="M 21.09375 -17.171875 C 20.050781 -17.316406 18.992188 -17.441406 17.921875 -17.546875 C 16.847656 -17.648438 15.820312 -17.734375 14.84375 -17.796875 C 13.875 -17.867188 12.984375 -17.925781 12.171875 -17.96875 C 11.359375 -18.019531 10.691406 -18.0625 10.171875 -18.09375 C 10.097656 -16 10.03125 -14.085938 9.96875 -12.359375 C 9.925781 -11.628906 9.894531 -10.898438 9.875 -10.171875 C 9.863281 -9.441406 9.84375 -8.765625 9.8125 -8.140625 C 9.789062 -7.523438 9.773438 -7 9.765625 -6.5625 C 9.753906 -6.125 9.75 -5.828125 9.75 -5.671875 C 9.75 -4.765625 9.867188 -4.039062 10.109375 -3.5 C 10.359375 -2.957031 10.726562 -2.546875 11.21875 -2.265625 C 11.71875 -1.992188 12.332031 -1.8125 13.0625 -1.71875 C 13.800781 -1.632812 14.660156 -1.59375 15.640625 -1.59375 C 17.035156 -1.59375 18.222656 -1.679688 19.203125 -1.859375 C 20.191406 -2.035156 21.03125 -2.359375 21.71875 -2.828125 C 22.40625 -3.296875 22.960938 -3.941406 23.390625 -4.765625 C 23.828125 -5.597656 24.1875 -6.664062 24.46875 -7.96875 L 26.125 -7.96875 C 26.050781 -7.5 25.941406 -6.90625 25.796875 -6.1875 C 25.660156 -5.476562 25.492188 -4.726562 25.296875 -3.9375 C 25.097656 -3.144531 24.863281 -2.351562 24.59375 -1.5625 C 24.320312 -0.78125 24.03125 -0.0859375 23.71875 0.515625 C 21.863281 0.460938 20.09375 0.390625 18.40625 0.296875 C 16.726562 0.203125 15.195312 0.109375 13.8125 0.015625 C 12.425781 -0.0664062 11.21875 -0.140625 10.1875 -0.203125 C 9.164062 -0.273438 8.394531 -0.3125 7.875 -0.3125 C 6.976562 -0.3125 6.035156 -0.289062 5.046875 -0.25 C 4.054688 -0.21875 2.90625 -0.132812 1.59375 0 L 1.640625 -1.484375 C 2.097656 -1.523438 2.5 -1.5625 2.84375 -1.59375 C 3.195312 -1.625 3.519531 -1.65625 3.8125 -1.6875 C 4.113281 -1.726562 4.398438 -1.753906 4.671875 -1.765625 C 4.953125 -1.785156 5.25 -1.804688 5.5625 -1.828125 C 5.738281 -6.929688 5.898438 -11.550781 6.046875 -15.6875 C 6.097656 -17.445312 6.148438 -19.1875 6.203125 -20.90625 C 6.265625 -22.625 6.320312 -24.175781 6.375 -25.5625 C 6.425781 -26.957031 6.460938 -28.125 6.484375 -29.0625 C 6.515625 -30.007812 6.53125 -30.585938 6.53125 -30.796875 C 6.53125 -31.578125 6.484375 -32.207031 6.390625 -32.6875 C 6.296875 -33.175781 6.144531 -33.550781 5.9375 -33.8125 C 5.726562 -34.082031 5.457031 -34.28125 5.125 -34.40625 C 4.789062 -34.53125 4.390625 -34.628906 3.921875 -34.703125 L 2.84375 -34.859375 L 2.84375 -36.375 C 3.332031 -36.300781 3.953125 -36.226562 4.703125 -36.15625 C 5.347656 -36.101562 6.160156 -36.0625 7.140625 -36.03125 C 8.117188 -36 9.3125 -35.984375 10.71875 -35.984375 L 17.015625 -35.984375 C 17.710938 -35.984375 18.390625 -35.984375 19.046875 -35.984375 C 19.710938 -35.992188 20.382812 -36.007812 21.0625 -36.03125 C 21.75 -36.0625 22.457031 -36.101562 23.1875 -36.15625 C 23.925781 -36.207031 24.710938 -36.28125 25.546875 -36.375 L 24.734375 -27.53125 L 23.140625 -27.53125 C 23.160156 -27.875 23.171875 -28.144531 23.171875 -28.34375 C 23.179688 -28.550781 23.1875 -28.710938 23.1875 -28.828125 C 23.1875 -28.941406 23.1875 -29.019531 23.1875 -29.0625 C 23.1875 -29.101562 23.1875 -29.140625 23.1875 -29.171875 C 23.1875 -29.753906 23.113281 -30.304688 22.96875 -30.828125 C 22.820312 -31.347656 22.535156 -31.8125 22.109375 -32.21875 C 21.679688 -32.632812 21.085938 -32.976562 20.328125 -33.25 C 19.566406 -33.519531 18.578125 -33.695312 17.359375 -33.78125 L 10.921875 -34.21875 C 10.785156 -32.789062 10.675781 -31.335938 10.59375 -29.859375 C 10.519531 -28.390625 10.46875 -27.039062 10.4375 -25.8125 L 10.21875 -19.921875 L 21.359375 -20.5 Z M 21.09375 -17.171875 "/></g></g><g transform="translate(93.992806, 210.215706)"><g><path d="M 11.84375 -1.171875 C 12.882812 -1.171875 13.863281 -1.332031 14.78125 -1.65625 C 15.695312 -1.976562 16.492188 -2.441406 17.171875 -3.046875 C 17.859375 -3.660156 18.394531 -4.40625 18.78125 -5.28125 C 19.175781 -6.164062 19.375 -7.164062 19.375 -8.28125 C 19.375 -9.351562 19.125 -10.328125 18.625 -11.203125 C 18.132812 -12.085938 17.507812 -12.898438 16.75 -13.640625 C 15.988281 -14.390625 15.160156 -15.097656 14.265625 -15.765625 C 13.378906 -16.429688 12.535156 -17.085938 11.734375 -17.734375 C 10.972656 -18.316406 10.128906 -18.960938 9.203125 -19.671875 C 8.273438 -20.378906 7.40625 -21.160156 6.59375 -22.015625 C 5.789062 -22.867188 5.113281 -23.804688 4.5625 -24.828125 C 4.007812 -25.859375 3.734375 -27.003906 3.734375 -28.265625 C 3.734375 -28.890625 3.796875 -29.546875 3.921875 -30.234375 C 4.046875 -30.921875 4.257812 -31.59375 4.5625 -32.25 C 4.863281 -32.90625 5.265625 -33.523438 5.765625 -34.109375 C 6.265625 -34.691406 6.890625 -35.203125 7.640625 -35.640625 C 8.390625 -36.085938 9.269531 -36.441406 10.28125 -36.703125 C 11.289062 -36.960938 12.46875 -37.09375 13.8125 -37.09375 C 15.519531 -37.09375 17.164062 -36.957031 18.75 -36.6875 C 20.332031 -36.425781 21.695312 -36.117188 22.84375 -35.765625 L 22.28125 -27.890625 L 20.78125 -27.890625 L 20.78125 -28.609375 C 20.78125 -29.265625 20.710938 -29.976562 20.578125 -30.75 C 20.441406 -31.53125 20.132812 -32.25 19.65625 -32.90625 C 19.1875 -33.5625 18.503906 -34.101562 17.609375 -34.53125 C 16.710938 -34.96875 15.503906 -35.1875 13.984375 -35.1875 C 13.078125 -35.1875 12.253906 -35.0625 11.515625 -34.8125 C 10.773438 -34.5625 10.144531 -34.203125 9.625 -33.734375 C 9.101562 -33.273438 8.695312 -32.710938 8.40625 -32.046875 C 8.113281 -31.390625 7.96875 -30.648438 7.96875 -29.828125 C 7.96875 -28.753906 8.179688 -27.800781 8.609375 -26.96875 C 9.035156 -26.144531 9.582031 -25.398438 10.25 -24.734375 C 10.925781 -24.066406 11.675781 -23.453125 12.5 -22.890625 C 13.320312 -22.328125 14.113281 -21.765625 14.875 -21.203125 C 16.03125 -20.367188 17.132812 -19.535156 18.1875 -18.703125 C 19.238281 -17.878906 20.164062 -17.007812 20.96875 -16.09375 C 21.769531 -15.175781 22.410156 -14.191406 22.890625 -13.140625 C 23.367188 -12.097656 23.609375 -10.953125 23.609375 -9.703125 C 23.609375 -8.234375 23.273438 -6.863281 22.609375 -5.59375 C 21.953125 -4.320312 21.066406 -3.210938 19.953125 -2.265625 C 18.847656 -1.328125 17.582031 -0.585938 16.15625 -0.046875 C 14.726562 0.492188 13.253906 0.765625 11.734375 0.765625 C 9.890625 0.765625 8.128906 0.613281 6.453125 0.3125 C 4.785156 0.0195312 3.332031 -0.316406 2.09375 -0.703125 L 2.71875 -9 L 4.34375 -9 L 4.34375 -8.078125 C 4.34375 -7.347656 4.425781 -6.578125 4.59375 -5.765625 C 4.769531 -4.953125 5.125 -4.207031 5.65625 -3.53125 C 6.1875 -2.851562 6.941406 -2.289062 7.921875 -1.84375 C 8.910156 -1.394531 10.21875 -1.171875 11.84375 -1.171875 Z M 11.84375 -1.171875 "/></g></g><g transform="translate(120.345928, 210.215706)"><g><path d="M 14.40625 -34.53125 C 13.414062 -34.570312 12.515625 -34.597656 11.703125 -34.609375 C 10.890625 -34.628906 10.238281 -34.640625 9.75 -34.640625 C 8.769531 -34.640625 7.90625 -34.566406 7.15625 -34.421875 C 6.414062 -34.273438 5.75 -33.960938 5.15625 -33.484375 C 4.570312 -33.015625 4.0625 -32.335938 3.625 -31.453125 C 3.195312 -30.566406 2.804688 -29.378906 2.453125 -27.890625 L 0.921875 -27.890625 L 1.984375 -36.6875 C 3.972656 -36.53125 5.675781 -36.4375 7.09375 -36.40625 C 8.519531 -36.382812 9.78125 -36.375 10.875 -36.375 C 13.25 -36.375 15.507812 -36.375 17.65625 -36.375 C 19.8125 -36.382812 21.785156 -36.398438 23.578125 -36.421875 C 25.378906 -36.453125 26.972656 -36.488281 28.359375 -36.53125 C 29.742188 -36.582031 30.851562 -36.648438 31.6875 -36.734375 L 30.90625 -27.890625 L 29.28125 -27.890625 C 29.28125 -28.085938 29.285156 -28.335938 29.296875 -28.640625 C 29.316406 -28.941406 29.328125 -29.191406 29.328125 -29.390625 C 29.328125 -29.960938 29.265625 -30.519531 29.140625 -31.0625 C 29.023438 -31.601562 28.765625 -32.085938 28.359375 -32.515625 C 27.960938 -32.941406 27.382812 -33.296875 26.625 -33.578125 C 25.875 -33.867188 24.851562 -34.050781 23.5625 -34.125 L 18.4375 -34.375 C 18.34375 -32.082031 18.253906 -29.8125 18.171875 -27.5625 C 18.097656 -25.3125 18.03125 -23.15625 17.96875 -21.09375 C 17.914062 -19.039062 17.859375 -17.113281 17.796875 -15.3125 C 17.734375 -13.519531 17.679688 -11.9375 17.640625 -10.5625 C 17.609375 -9.1875 17.578125 -8.050781 17.546875 -7.15625 C 17.523438 -6.269531 17.515625 -5.707031 17.515625 -5.46875 C 17.515625 -4.695312 17.570312 -4.078125 17.6875 -3.609375 C 17.800781 -3.140625 17.96875 -2.769531 18.1875 -2.5 C 18.40625 -2.226562 18.671875 -2.03125 18.984375 -1.90625 C 19.296875 -1.78125 19.660156 -1.691406 20.078125 -1.640625 L 21.203125 -1.484375 L 21.203125 0 C 20.816406 -0.0507812 20.351562 -0.113281 19.8125 -0.1875 C 19.363281 -0.21875 18.804688 -0.253906 18.140625 -0.296875 C 17.484375 -0.335938 16.71875 -0.359375 15.84375 -0.359375 C 14.957031 -0.359375 13.984375 -0.332031 12.921875 -0.28125 C 11.859375 -0.226562 10.671875 -0.132812 9.359375 0 L 9.359375 -1.484375 C 9.816406 -1.523438 10.21875 -1.5625 10.5625 -1.59375 C 10.90625 -1.625 11.222656 -1.65625 11.515625 -1.6875 C 11.816406 -1.726562 12.109375 -1.753906 12.390625 -1.765625 C 12.671875 -1.785156 12.96875 -1.804688 13.28125 -1.828125 Z M 14.40625 -34.53125 "/></g></g><g transform="translate(151.770981, 210.215706)"><g><path d="M 2.046875 -36.375 C 2.421875 -36.300781 2.878906 -36.226562 3.421875 -36.15625 C 3.878906 -36.101562 4.429688 -36.0625 5.078125 -36.03125 C 5.734375 -36 6.507812 -35.984375 7.40625 -35.984375 C 8.289062 -35.984375 9.265625 -36.007812 10.328125 -36.0625 C 11.390625 -36.125 12.566406 -36.226562 13.859375 -36.375 L 13.859375 -34.859375 C 13.398438 -34.816406 13 -34.78125 12.65625 -34.75 C 12.320312 -34.71875 12.003906 -34.6875 11.703125 -34.65625 C 11.410156 -34.632812 11.125 -34.613281 10.84375 -34.59375 C 10.570312 -34.570312 10.28125 -34.550781 9.96875 -34.53125 C 9.84375 -31.445312 9.738281 -28.785156 9.65625 -26.546875 C 9.582031 -24.304688 9.515625 -22.394531 9.453125 -20.8125 C 9.390625 -19.238281 9.335938 -17.945312 9.296875 -16.9375 C 9.265625 -15.925781 9.242188 -15.109375 9.234375 -14.484375 C 9.234375 -13.867188 9.226562 -13.398438 9.21875 -13.078125 C 9.207031 -12.765625 9.203125 -12.507812 9.203125 -12.3125 C 9.203125 -8.71875 10.0625 -6.015625 11.78125 -4.203125 C 13.5 -2.390625 16.195312 -1.484375 19.875 -1.484375 C 23.445312 -1.484375 26.171875 -2.507812 28.046875 -4.5625 C 29.929688 -6.625 30.953125 -9.765625 31.109375 -13.984375 C 31.304688 -18.898438 31.453125 -22.753906 31.546875 -25.546875 C 31.640625 -28.347656 31.6875 -30.132812 31.6875 -30.90625 C 31.6875 -31.65625 31.632812 -32.265625 31.53125 -32.734375 C 31.425781 -33.203125 31.269531 -33.570312 31.0625 -33.84375 C 30.851562 -34.113281 30.585938 -34.304688 30.265625 -34.421875 C 29.941406 -34.535156 29.5625 -34.628906 29.125 -34.703125 L 28 -34.859375 L 28 -36.375 C 28.332031 -36.300781 28.742188 -36.226562 29.234375 -36.15625 C 29.648438 -36.101562 30.164062 -36.0625 30.78125 -36.03125 C 31.40625 -36 32.144531 -35.984375 33 -35.984375 C 33.832031 -35.984375 34.765625 -36.007812 35.796875 -36.0625 C 36.835938 -36.125 38.003906 -36.226562 39.296875 -36.375 L 39.296875 -34.859375 C 38.847656 -34.816406 38.453125 -34.78125 38.109375 -34.75 C 37.765625 -34.71875 37.441406 -34.6875 37.140625 -34.65625 C 36.847656 -34.632812 36.5625 -34.613281 36.28125 -34.59375 C 36.007812 -34.570312 35.71875 -34.550781 35.40625 -34.53125 L 33.625 -13.59375 C 33.414062 -11.28125 32.976562 -9.226562 32.3125 -7.4375 C 31.65625 -5.65625 30.742188 -4.15625 29.578125 -2.9375 C 28.421875 -1.726562 27 -0.804688 25.3125 -0.171875 C 23.632812 0.453125 21.691406 0.765625 19.484375 0.765625 C 17.296875 0.765625 15.3125 0.535156 13.53125 0.078125 C 11.757812 -0.367188 10.242188 -1.0625 8.984375 -2 C 7.734375 -2.9375 6.765625 -4.101562 6.078125 -5.5 C 5.390625 -6.90625 5.046875 -8.566406 5.046875 -10.484375 C 5.046875 -10.847656 5.050781 -11.398438 5.0625 -12.140625 C 5.082031 -12.878906 5.109375 -13.734375 5.140625 -14.703125 C 5.179688 -15.671875 5.222656 -16.71875 5.265625 -17.84375 C 5.304688 -18.96875 5.351562 -20.097656 5.40625 -21.234375 C 5.457031 -22.367188 5.503906 -23.472656 5.546875 -24.546875 C 5.597656 -25.628906 5.640625 -26.609375 5.671875 -27.484375 C 5.703125 -28.367188 5.726562 -29.109375 5.75 -29.703125 C 5.769531 -30.304688 5.78125 -30.707031 5.78125 -30.90625 C 5.78125 -31.65625 5.722656 -32.265625 5.609375 -32.734375 C 5.492188 -33.203125 5.328125 -33.570312 5.109375 -33.84375 C 4.890625 -34.113281 4.613281 -34.304688 4.28125 -34.421875 C 3.957031 -34.535156 3.582031 -34.628906 3.15625 -34.703125 L 2.046875 -34.859375 Z M 2.046875 -36.375 "/></g></g></g><g fill="#000000" fill-opacity="1"><g transform="translate(87.13786, 99.114292)"><g><path d="M 0.535156 -27.09375 L 6.105469 -27.09375 L 8.886719 -37.746094 L 4.550781 -37.746094 Z M 8.03125 -27.09375 L 13.601562 -27.09375 L 16.382812 -37.746094 L 12.046875 -37.746094 Z M 8.03125 -27.09375 "/></g></g></g><g fill="#000000" fill-opacity="1"><g transform="translate(105.395951, 99.114292)"><g/></g></g><g fill="#000000" fill-opacity="1"><g transform="translate(118.72811, 99.114292)"><g><path d="M 9.101562 -37.695312 L 3.535156 -37.695312 L 0.75 -27.039062 L 5.085938 -27.039062 Z M 16.597656 -37.695312 L 11.03125 -37.695312 L 8.246094 -27.039062 L 12.582031 -27.039062 Z M 16.597656 -37.695312 "/></g></g></g></svg>