<svg width="105" height="67" viewBox="0 0 105 67" fill="none" xmlns="http://www.w3.org/2000/svg">
<g clip-path="url(#clip0_21_17)" filter="url(#filter0_d_21_17)">
<path d="M16.5581 0V3.83066C15.5028 3.83066 14.6796 3.98157 14.0882 4.28338C13.4968 4.57357 13.2417 5.15977 13.3229 6.04199L13.8621 11.1785C14.0012 12.4786 13.8563 13.5292 13.4272 14.3301C13.0098 15.131 12.3662 15.7464 11.4966 16.1758C10.6385 16.5938 9.62386 16.8897 8.45271 17.0638C9.69343 17.2495 10.7428 17.5514 11.6009 17.9693C12.459 18.3871 13.0852 18.9907 13.4794 19.7801C13.8737 20.5695 14.0012 21.6258 13.8621 22.9492L13.3229 28.0857C13.2417 28.9679 13.4968 29.5541 14.0882 29.8443C14.6796 30.146 15.5028 30.297 16.5581 30.297V34.1277C13.3577 34.1277 11.1081 33.6401 9.80939 32.6651C8.52229 31.7016 8.00048 30.0475 8.24398 27.7026L8.76579 22.7227C8.85856 21.8406 8.70782 21.1499 8.31357 20.6507C7.93091 20.1516 7.36272 19.8033 6.60901 19.6059C5.85529 19.3971 4.98563 19.2926 4 19.2926V14.8351C4.97403 14.8351 5.8379 14.7364 6.59162 14.5391C7.34533 14.3301 7.91932 13.9761 8.31357 13.477C8.70782 12.9778 8.85856 12.2871 8.76579 11.4049L8.24398 6.45987C7.98889 4.06861 8.51068 2.39706 9.80939 1.4452C11.1081 0.481734 13.3577 0 16.5581 0Z" fill="url(#paint0_linear_21_17)"/>
<path d="M31.633 4.50977C34.5087 4.50977 36.6771 5.62414 38.1381 7.85288C39.6108 10.07 40.3471 13.1636 40.3471 17.1335C40.3471 21.115 39.6108 24.2318 38.1381 26.4838C36.6771 28.7242 34.5087 29.8443 31.633 29.8443C28.7342 29.8443 26.5541 28.7242 25.0931 26.4838C23.6436 24.2318 22.9189 21.115 22.9189 17.1335C22.9189 13.1636 23.6436 10.07 25.0931 7.85288C26.5541 5.62414 28.7342 4.50977 31.633 4.50977ZM31.633 8.49713C30.4039 8.49713 29.5052 9.15879 28.937 10.4821C28.3689 11.7938 28.0847 14.0109 28.0847 17.1335C28.0847 18.1551 28.1022 19.0663 28.1369 19.8672C28.1718 20.6566 28.224 21.3589 28.2935 21.9741L34.1724 9.66374C33.8942 9.22264 33.5463 8.92083 33.1289 8.75831C32.7231 8.5842 32.2244 8.49713 31.633 8.49713ZM35.1465 17.1335C35.1465 15.7986 35.1175 14.6726 35.0595 13.7555L29.511 25.2302C29.7662 25.4739 30.0676 25.6422 30.4154 25.7351C30.775 25.8279 31.1808 25.8744 31.633 25.8744C32.4564 25.8744 33.1231 25.5958 33.6333 25.0387C34.1551 24.4815 34.5377 23.5644 34.7812 22.2875C35.0248 20.999 35.1465 19.281 35.1465 17.1335Z" fill="url(#paint1_linear_21_17)"/>
<path d="M52.5 4.50977C55.3757 4.50977 57.5441 5.62414 59.0051 7.85288C60.4778 10.07 61.214 13.1636 61.214 17.1335C61.214 21.115 60.4778 24.2318 59.0051 26.4838C57.5441 28.7242 55.3757 29.8443 52.5 29.8443C49.601 29.8443 47.4211 28.7242 45.9601 26.4838C44.5106 24.2318 43.7859 21.115 43.7859 17.1335C43.7859 13.1636 44.5106 10.07 45.9601 7.85288C47.4211 5.62414 49.601 4.50977 52.5 4.50977ZM52.5 8.49713C51.2709 8.49713 50.3722 9.15879 49.804 10.4821C49.2359 11.7938 48.9518 14.0109 48.9518 17.1335C48.9518 18.1551 48.9692 19.0663 49.0039 19.8672C49.0387 20.6566 49.0909 21.3589 49.1605 21.9741L55.0394 9.66374C54.7611 9.22264 54.4132 8.92083 53.9959 8.75831C53.5899 8.5842 53.0913 8.49713 52.5 8.49713ZM56.0135 17.1335C56.0135 15.7986 55.9845 14.6726 55.9265 13.7555L50.378 25.2302C50.633 25.4739 50.9346 25.6422 51.2825 25.7351C51.642 25.8279 52.0478 25.8744 52.5 25.8744C53.3233 25.8744 53.99 25.5958 54.5003 25.0387C55.022 24.4815 55.4047 23.5644 55.6482 22.2875C55.8917 20.999 56.0135 19.281 56.0135 17.1335Z" fill="url(#paint2_linear_21_17)"/>
<path d="M72.1146 29.8095L66.8966 28.1902L75.889 9.26321H65.2964V5.11914H81.4549V8.84532L72.1146 29.8095Z" fill="url(#paint3_linear_21_17)"/>
<path d="M88.442 0C91.6423 0 93.8861 0.481734 95.1733 1.4452C96.472 2.40867 96.9996 4.06862 96.7561 6.42505L96.2342 11.4049C96.1414 12.2871 96.2922 12.9778 96.6865 13.477C97.0807 13.9761 97.6488 14.3301 98.391 14.5391C99.1447 14.7364 100.014 14.8351 101 14.8351V19.2926C100.026 19.2926 99.1622 19.3971 98.4084 19.6059C97.6547 19.8033 97.0807 20.1516 96.6865 20.6507C96.2922 21.1499 96.1414 21.8406 96.2342 22.7227L96.7561 27.6678C97.0228 30.0475 96.5009 31.719 95.1906 32.6824C93.8919 33.646 91.6423 34.1277 88.442 34.1277V30.297C89.5088 30.297 90.3379 30.146 90.9292 29.8443C91.5207 29.5541 91.7699 28.9679 91.6772 28.0857L91.1379 22.9492C90.9988 21.6374 91.1379 20.5868 91.5554 19.7976C91.9844 18.9965 92.6338 18.3871 93.5035 17.9693C94.3731 17.5397 95.3935 17.238 96.5647 17.0638C95.3239 16.8781 94.2688 16.5763 93.3991 16.1584C92.541 15.7405 91.9149 15.1369 91.5207 14.3476C91.1264 13.5466 90.9988 12.4903 91.1379 11.1785L91.6772 6.04199C91.7699 5.15977 91.5148 4.57357 90.9119 4.28338C90.3204 3.98157 89.4972 3.83066 88.442 3.83066V0Z" fill="url(#paint4_linear_21_17)"/>
<path d="M16.2745 42.1621C17.2416 42.1621 18.0208 42.4024 18.6121 42.883C19.2036 43.3635 19.6349 44.0426 19.9063 44.9202C20.1845 45.7977 20.3238 46.839 20.3238 48.0439C20.3238 49.1862 20.1568 50.2065 19.8228 51.1049C19.4888 51.9964 19.0053 52.6999 18.3722 53.2153C17.739 53.7238 16.9703 53.978 16.0658 53.978C14.9874 53.978 14.1108 53.5914 13.4359 52.8182V57.9061L10.1381 58.2509V42.5278H13.0602L13.2063 43.771C13.6586 43.1929 14.1525 42.782 14.6882 42.5382C15.224 42.2875 15.7527 42.1621 16.2745 42.1621ZM15.2518 44.5964C14.8691 44.5964 14.5317 44.7113 14.2395 44.9411C13.9473 45.1709 13.6794 45.4843 13.4359 45.8813V50.5617C13.6655 50.903 13.9055 51.1537 14.156 51.3139C14.4134 51.474 14.7161 51.5542 15.0639 51.5542C15.6484 51.5542 16.1041 51.2895 16.4311 50.7601C16.7581 50.2238 16.9215 49.3325 16.9215 48.0857C16.9215 47.1663 16.8555 46.456 16.7232 45.9545C16.5911 45.4461 16.3998 45.0943 16.1493 44.8993C15.8988 44.6973 15.5997 44.5964 15.2518 44.5964Z" fill="url(#paint5_linear_21_17)"/>
<path d="M31.9882 50.4259C31.9882 50.8437 32.0438 51.1467 32.1552 51.3348C32.2734 51.5228 32.4613 51.6657 32.7186 51.7631L32.0404 53.9362C31.3863 53.8735 30.8333 53.7307 30.3809 53.5078C29.9357 53.278 29.5844 52.9332 29.3269 52.4736C28.9026 52.982 28.3599 53.3615 27.6989 53.6123C27.038 53.856 26.3632 53.978 25.6743 53.978C24.5333 53.978 23.6219 53.6541 22.94 53.0063C22.2652 52.3517 21.9278 51.5124 21.9278 50.4886C21.9278 49.2837 22.3974 48.3538 23.3366 47.6991C24.2828 47.0445 25.6117 46.7172 27.3232 46.7172H28.8155V46.2992C28.8155 45.164 28.0851 44.5964 26.6239 44.5964C26.2692 44.5964 25.8134 44.6486 25.2569 44.7531C24.7003 44.8505 24.1437 44.9932 23.5871 45.1813L22.8252 42.9875C23.5419 42.7159 24.2864 42.5103 25.0586 42.3711C25.8378 42.2318 26.5336 42.1621 27.1458 42.1621C28.7947 42.1621 30.0122 42.4999 30.7984 43.1754C31.5916 43.8441 31.9882 44.8122 31.9882 46.0798V50.4259ZM26.8118 51.6169C27.1667 51.6169 27.5389 51.5124 27.9285 51.3034C28.3181 51.0876 28.6138 50.7846 28.8155 50.3946V48.5977H28.0016C27.0832 48.5977 26.4083 48.7404 25.977 49.0259C25.5456 49.3045 25.3299 49.7155 25.3299 50.2588C25.3299 50.6836 25.4586 51.0179 25.7161 51.2616C25.9804 51.4985 26.3457 51.6169 26.8118 51.6169Z" fill="url(#paint6_linear_21_17)"/>
<path d="M45.6355 42.5276L41.9411 53.6225H38.0589L34.3227 42.5276H37.8815L40.0418 51.0943L42.2958 42.5276H45.6355Z" fill="url(#paint7_linear_21_17)"/>
<path d="M57.0286 50.4259C57.0286 50.8437 57.0842 51.1467 57.1956 51.3348C57.3138 51.5228 57.5017 51.6657 57.759 51.7631L57.0808 53.9362C56.4267 53.8735 55.8737 53.7307 55.4214 53.5078C54.9761 53.278 54.6248 52.9332 54.3673 52.4736C53.943 52.982 53.4003 53.3615 52.7393 53.6123C52.0784 53.856 51.4036 53.978 50.7147 53.978C49.5737 53.978 48.6623 53.6541 47.9804 53.0063C47.3056 52.3517 46.9682 51.5124 46.9682 50.4886C46.9682 49.2837 47.4379 48.3538 48.377 47.6991C49.3232 47.0445 50.6521 46.7172 52.3636 46.7172H53.8559V46.2992C53.8559 45.164 53.1255 44.5964 51.6645 44.5964C51.3096 44.5964 50.8538 44.6486 50.2973 44.7531C49.7407 44.8505 49.1841 44.9932 48.6275 45.1813L47.8658 42.9875C48.5823 42.7159 49.3268 42.5103 50.099 42.3711C50.8783 42.2318 51.574 42.1621 52.1862 42.1621C53.8351 42.1621 55.0526 42.4999 55.8388 43.1754C56.632 43.8441 57.0286 44.8122 57.0286 46.0798V50.4259ZM51.8522 51.6169C52.2071 51.6169 52.5793 51.5124 52.9689 51.3034C53.3585 51.0876 53.6542 50.7846 53.8559 50.3946V48.5977H53.042C52.1236 48.5977 51.4487 48.7404 51.0174 49.0259C50.5861 49.3045 50.3703 49.7155 50.3703 50.2588C50.3703 50.6836 50.4991 51.0179 50.7565 51.2616C51.0208 51.4985 51.3861 51.6169 51.8522 51.6169Z" fill="url(#paint8_linear_21_17)"/>
<path d="M60.2189 53.6227V42.5278H63.0993L63.3289 43.8128C63.8229 43.2556 64.3446 42.8412 64.8943 42.5696C65.4439 42.2979 66.0701 42.1621 66.7728 42.1621C67.7189 42.1621 68.4634 42.4511 69.0061 43.0293C69.5487 43.6074 69.82 44.4222 69.82 45.4739V53.6227H66.5223V46.4246C66.5223 45.7421 66.4458 45.2685 66.2927 45.0037C66.1466 44.7322 65.8683 44.5964 65.4577 44.5964C65.1099 44.5964 64.776 44.7077 64.4559 44.9307C64.1428 45.1535 63.8297 45.4634 63.5168 45.8604V53.6227H60.2189Z" fill="url(#paint9_linear_21_17)"/>
<path d="M80.9314 42.1621C81.7175 42.1621 82.2985 42.4199 82.6742 42.9353C83.0568 43.4436 83.2481 44.269 83.2481 45.4112V53.6227H80.42V45.7873C80.42 45.3973 80.3817 45.1222 80.3052 44.962C80.2356 44.8017 80.0895 44.7217 79.8669 44.7217C79.693 44.7217 79.512 44.774 79.3242 44.8784C79.1433 44.9759 78.9416 45.164 78.719 45.4425V53.6227H76.4022V45.7873C76.4022 45.3973 76.3638 45.1222 76.2873 44.962C76.2177 44.8017 76.0716 44.7217 75.849 44.7217C75.6751 44.7217 75.4942 44.774 75.3063 44.8784C75.1254 44.9759 74.9237 45.164 74.7011 45.4425V53.6227H71.8311V42.5278H74.2523L74.4715 43.6038C74.8193 43.1302 75.1707 42.7715 75.5255 42.5278C75.8803 42.284 76.3012 42.1621 76.7883 42.1621C77.2057 42.1621 77.5605 42.27 77.8527 42.486C78.152 42.695 78.3641 43.0257 78.4894 43.4784C78.8233 43.0884 79.1921 42.7715 79.5955 42.5278C79.9991 42.284 80.4443 42.1621 80.9314 42.1621Z" fill="url(#paint10_linear_21_17)"/>
<path d="M95.1004 40.7517L95.8728 43.1754C95.4832 43.3287 95.0274 43.4401 94.5057 43.5097C93.9838 43.5794 93.3751 43.6142 92.6794 43.6142C93.3751 43.9137 93.9038 44.2863 94.2656 44.7321C94.6344 45.1708 94.8187 45.7489 94.8187 46.4664C94.8187 47.1837 94.6274 47.8245 94.2448 48.3886C93.862 48.9458 93.3195 49.3846 92.6168 49.705C91.9141 50.0254 91.0826 50.1856 90.1225 50.1856C89.6633 50.1856 89.2354 50.1438 88.8389 50.0602C88.7205 50.1229 88.6302 50.2133 88.5676 50.3318C88.5049 50.4502 88.4736 50.5721 88.4736 50.6975C88.4736 50.8716 88.5431 51.0283 88.6824 51.1675C88.8285 51.3069 89.1659 51.3765 89.6946 51.3765H91.5105C92.3732 51.3765 93.1176 51.5158 93.7438 51.7944C94.3769 52.0729 94.8674 52.4526 95.2153 52.9331C95.5631 53.4137 95.7371 53.964 95.7371 54.5839C95.7371 55.7191 95.2397 56.6141 94.2448 57.2688C93.2498 57.9234 91.7714 58.2509 89.8094 58.2509C88.3901 58.2509 87.2908 58.1046 86.5117 57.812C85.7393 57.5265 85.2002 57.1156 84.8941 56.5792C84.5949 56.0499 84.4453 55.4196 84.4453 54.6882H87.3673C87.3673 55.0087 87.43 55.2699 87.5552 55.4718C87.6874 55.6808 87.9344 55.8341 88.2962 55.9315C88.6649 56.029 89.1972 56.0778 89.8929 56.0778C90.5956 56.0778 91.1313 56.022 91.5 55.9107C91.8688 55.7992 92.1192 55.646 92.2515 55.4509C92.3906 55.2629 92.4602 55.0505 92.4602 54.8136C92.4602 54.4863 92.3314 54.2217 92.0741 54.0197C91.8166 53.8177 91.4097 53.7167 90.853 53.7167H89.0893C87.8926 53.7167 87.0229 53.4973 86.4803 53.0585C85.9376 52.6128 85.6663 52.0938 85.6663 51.5019C85.6663 51.091 85.7741 50.701 85.9898 50.3318C86.2124 49.9627 86.5221 49.6527 86.9187 49.402C86.209 49.0258 85.701 48.5836 85.3949 48.0752C85.0888 47.5598 84.9358 46.9434 84.9358 46.226C84.9358 45.3902 85.148 44.6729 85.5724 44.0739C85.9968 43.4679 86.5811 43.0013 87.3256 42.674C88.077 42.3467 88.9329 42.1829 89.8929 42.1829C90.7208 42.1968 91.441 42.1412 92.0532 42.0158C92.6654 41.8834 93.2151 41.7059 93.7021 41.4829C94.189 41.2531 94.6552 41.0093 95.1004 40.7517ZM89.9764 44.3246C89.4546 44.3246 89.0406 44.4918 88.7345 44.8262C88.4283 45.1535 88.2753 45.6062 88.2753 46.1843C88.2753 46.7971 88.4319 47.2673 88.745 47.5946C89.058 47.9219 89.4686 48.0857 89.9764 48.0857C91.1034 48.0857 91.667 47.4379 91.667 46.1425C91.667 44.9306 91.1034 44.3246 89.9764 44.3246Z" fill="url(#paint11_linear_21_17)"/>
</g>
<defs>
<filter id="filter0_d_21_17" x="0" y="0" width="105" height="67" filterUnits="userSpaceOnUse" color-interpolation-filters="sRGB">
<feFlood flood-opacity="0" result="BackgroundImageFix"/>
<feColorMatrix in="SourceAlpha" type="matrix" values="0 0 0 0 0 0 0 0 0 0 0 0 0 0 0 0 0 0 127 0" result="hardAlpha"/>
<feOffset dy="4"/>
<feGaussianBlur stdDeviation="2"/>
<feComposite in2="hardAlpha" operator="out"/>
<feColorMatrix type="matrix" values="0 0 0 0 0 0 0 0 0 0 0 0 0 0 0 0 0 0 0.25 0"/>
<feBlend mode="normal" in2="BackgroundImageFix" result="effect1_dropShadow_21_17"/>
<feBlend mode="normal" in="SourceGraphic" in2="effect1_dropShadow_21_17" result="shape"/>
</filter>
<linearGradient id="paint0_linear_21_17" x1="1.94995" y1="36.7549" x2="103.972" y2="0.679714" gradientUnits="userSpaceOnUse">
<stop stop-color="#00C0FD"/>
<stop offset="1" stop-color="#E70FAA"/>
</linearGradient>
<linearGradient id="paint1_linear_21_17" x1="1.94996" y1="36.755" x2="103.972" y2="0.679755" gradientUnits="userSpaceOnUse">
<stop stop-color="#00C0FD"/>
<stop offset="1" stop-color="#E70FAA"/>
</linearGradient>
<linearGradient id="paint2_linear_21_17" x1="1.94993" y1="36.755" x2="103.972" y2="0.679757" gradientUnits="userSpaceOnUse">
<stop stop-color="#00C0FD"/>
<stop offset="1" stop-color="#E70FAA"/>
</linearGradient>
<linearGradient id="paint3_linear_21_17" x1="1.94995" y1="36.7549" x2="103.972" y2="0.679708" gradientUnits="userSpaceOnUse">
<stop stop-color="#00C0FD"/>
<stop offset="1" stop-color="#E70FAA"/>
</linearGradient>
<linearGradient id="paint4_linear_21_17" x1="1.94998" y1="36.7549" x2="103.972" y2="0.679722" gradientUnits="userSpaceOnUse">
<stop stop-color="#00C0FD"/>
<stop offset="1" stop-color="#E70FAA"/>
</linearGradient>
<linearGradient id="paint5_linear_21_17" x1="3.75558" y1="59.3455" x2="97.6381" y2="39.507" gradientUnits="userSpaceOnUse">
<stop stop-color="#13B0F5"/>
<stop offset="1" stop-color="#CA24B4"/>
</linearGradient>
<linearGradient id="paint6_linear_21_17" x1="3.75555" y1="59.3455" x2="97.638" y2="39.507" gradientUnits="userSpaceOnUse">
<stop stop-color="#13B0F5"/>
<stop offset="1" stop-color="#CA24B4"/>
</linearGradient>
<linearGradient id="paint7_linear_21_17" x1="3.75557" y1="59.3453" x2="97.6381" y2="39.5068" gradientUnits="userSpaceOnUse">
<stop stop-color="#13B0F5"/>
<stop offset="1" stop-color="#CA24B4"/>
</linearGradient>
<linearGradient id="paint8_linear_21_17" x1="3.7556" y1="59.3455" x2="97.6381" y2="39.507" gradientUnits="userSpaceOnUse">
<stop stop-color="#13B0F5"/>
<stop offset="1" stop-color="#CA24B4"/>
</linearGradient>
<linearGradient id="paint9_linear_21_17" x1="3.75557" y1="59.3455" x2="97.6381" y2="39.507" gradientUnits="userSpaceOnUse">
<stop stop-color="#13B0F5"/>
<stop offset="1" stop-color="#CA24B4"/>
</linearGradient>
<linearGradient id="paint10_linear_21_17" x1="3.75559" y1="59.3455" x2="97.638" y2="39.507" gradientUnits="userSpaceOnUse">
<stop stop-color="#13B0F5"/>
<stop offset="1" stop-color="#CA24B4"/>
</linearGradient>
<linearGradient id="paint11_linear_21_17" x1="3.75559" y1="59.3454" x2="97.6381" y2="39.5069" gradientUnits="userSpaceOnUse">
<stop stop-color="#13B0F5"/>
<stop offset="1" stop-color="#CA24B4"/>
</linearGradient>
<clipPath id="clip0_21_17">
<rect width="97" height="59" fill="white" transform="translate(4)"/>
</clipPath>
</defs>
</svg>
