<svg xmlns="http://www.w3.org/2000/svg" xmlns:xlink="http://www.w3.org/1999/xlink" width="500" zoomAndPan="magnify" viewBox="0 0 375 374.999991" height="500" preserveAspectRatio="xMidYMid meet" version="1.0"><defs><g/><clipPath id="b211fe8609"><path d="M 0 124.953125 L 125.09375 124.953125 L 125.09375 250.046875 L 0 250.046875 Z M 0 124.953125 " clip-rule="nonzero"/></clipPath><clipPath id="00c429494b"><path d="M 118.074219 124.953125 L 360.289062 124.953125 L 360.289062 133.308594 L 118.074219 133.308594 Z M 351.757812 133.308594 L 360.289062 133.308594 L 360.289062 241.511719 L 351.757812 241.511719 Z M 118.074219 133.308594 L 126.429688 133.308594 L 126.429688 241.511719 L 118.074219 241.511719 Z M 118.074219 241.511719 L 360.289062 241.511719 L 360.289062 250.046875 L 118.074219 250.046875 Z M 118.074219 241.511719 " clip-rule="nonzero"/></clipPath><clipPath id="05cfcc418c"><path d="M 50.453125 132 L 77.730469 132 L 77.730469 242.984375 L 50.453125 242.984375 Z M 50.453125 132 " clip-rule="nonzero"/></clipPath></defs><rect x="-37.5" width="450" fill="#ffffff" y="-37.499999" height="449.999989" fill-opacity="1"/><rect x="-37.5" width="450" fill="#ffffff" y="-37.499999" height="449.999989" fill-opacity="1"/><g clip-path="url(#b211fe8609)"><path fill="#000000" d="M 0 124.953125 L 125.09375 124.953125 L 125.09375 250.046875 L 0 250.046875 Z M 0 124.953125 " fill-opacity="1" fill-rule="nonzero"/></g><g clip-path="url(#00c429494b)"><path fill="#000000" d="M 118.074219 124.953125 L 360.441406 124.953125 L 360.441406 250.046875 L 118.074219 250.046875 Z M 118.074219 124.953125 " fill-opacity="1" fill-rule="nonzero"/></g><g clip-path="url(#05cfcc418c)"><path fill="#ffffff" d="M 53.546875 243.402344 L 50.34375 236.144531 C 62.175781 230.84375 68.164062 223.027344 68.023438 211.445312 L 65.519531 199.164062 L 73.035156 209.769531 C 70.949219 212.140625 68.304688 212.980469 65.65625 212.980469 C 59.949219 212.980469 55.21875 209.492188 55.21875 202.929688 C 55.21875 196.230469 60.089844 192.882812 65.65625 192.882812 C 73.453125 192.882812 77.628906 199.300781 77.628906 209.769531 C 77.628906 225.957031 68.441406 237.820312 53.546875 243.402344 Z M 64.960938 153.246094 C 59.253906 153.246094 54.382812 149.058594 54.382812 142.78125 C 54.382812 136.359375 59.253906 132.171875 64.960938 132.171875 C 70.53125 132.171875 75.402344 136.359375 75.402344 142.78125 C 75.402344 149.058594 70.53125 153.246094 64.960938 153.246094 Z M 64.960938 153.246094 " fill-opacity="1" fill-rule="nonzero"/></g><g fill="#000000" fill-opacity="1"><g transform="translate(171.7149, 190.780039)"><g><path d="M 3.199219 -1.328125 L 3.492188 -0.414062 L 4.324219 0 L 5.113281 0.0429688 L 6.816406 -0.0820312 L 7.6875 0 L 8.9375 0 L 10.222656 -0.414062 L 10.515625 -1.207031 L 10.597656 -2.078125 L 10.433594 -2.949219 L 10.558594 -4.738281 L 10.472656 -7.316406 L 10.847656 -8.144531 L 11.679688 -8.5625 L 12.425781 -8.5625 L 13.175781 -8.601562 L 14.214844 -8.269531 L 14.878906 -7.5625 L 15.960938 -6.109375 L 16.25 -5.320312 L 17.414062 -3.242188 L 17.953125 -2.453125 L 18.328125 -1.746094 L 18.828125 -1.082031 L 19.660156 -0.332031 L 20.699219 -0.0820312 L 22.195312 0 L 23.109375 -0.0820312 L 23.941406 0 L 25.601562 0 L 26.515625 -0.0820312 L 27.390625 -0.289062 L 27.554688 -1.164062 L 27.015625 -2.203125 L 25.6875 -4.238281 L 25.3125 -4.945312 L 24.8125 -5.695312 L 24.398438 -6.441406 L 23.855469 -7.105469 L 22.609375 -9.269531 L 22.484375 -10.265625 L 22.941406 -11.140625 L 24.105469 -12.261719 L 24.605469 -12.96875 L 24.894531 -13.757812 L 25.351562 -14.503906 L 25.644531 -15.210938 L 26.101562 -16.792969 L 26.144531 -20.074219 L 25.933594 -20.863281 L 25.808594 -21.652344 L 25.601562 -22.484375 L 24.480469 -24.769531 L 23.898438 -25.394531 L 23.523438 -26.019531 L 21.445312 -27.597656 L 19.992188 -28.34375 L 16.542969 -29.050781 L 15.503906 -29.136719 L 14.296875 -29.09375 L 13.382812 -29.136719 L 12.550781 -29.050781 L 11.636719 -29.136719 L 10.929688 -29.050781 L 8.4375 -29.136719 L 7.648438 -29.011719 L 5.945312 -29.175781 L 5.152344 -29.050781 L 4.238281 -29.09375 L 3.449219 -28.71875 L 3.117188 -27.847656 L 2.992188 -16.210938 L 3.117188 -15.003906 L 3.117188 -12.925781 L 3.035156 -12.054688 L 2.992188 -10.472656 L 3.117188 -9.558594 L 2.992188 -7.855469 L 3.160156 -5.445312 L 3.074219 -4.570312 Z M 11.679688 -15.296875 L 10.972656 -15.667969 L 10.558594 -16.542969 L 10.433594 -21.195312 L 10.929688 -22.027344 L 11.761719 -22.445312 L 12.425781 -22.484375 L 14.714844 -22.445312 L 16.625 -22.195312 L 17.914062 -21.40625 L 18.328125 -20.78125 L 18.621094 -20.117188 L 18.703125 -18.910156 L 18.578125 -17.789062 L 18.246094 -16.957031 L 17.789062 -16.25 L 17.289062 -15.753906 L 16.667969 -15.460938 L 13.425781 -15.171875 L 12.59375 -15.296875 Z M 11.679688 -15.296875 "/></g></g></g><g fill="#000000" fill-opacity="1"><g transform="translate(202.676717, 190.780039)"><g><path d="M 2.992188 -1.207031 L 3.53125 -0.414062 L 4.324219 0.0429688 L 13.714844 -0.0429688 L 14.464844 0.0820312 L 17 -0.0429688 L 19.535156 0.125 L 20.324219 0.0429688 L 21.195312 -0.375 L 21.570312 -1.164062 L 21.652344 -1.953125 L 21.613281 -4.53125 L 21.695312 -5.320312 L 21.15625 -6.152344 L 19.910156 -6.566406 L 14.421875 -6.648438 L 13.632812 -6.523438 L 12.71875 -6.609375 L 11.804688 -6.523438 L 10.929688 -7.023438 L 10.558594 -8.3125 L 10.597656 -10.347656 L 10.972656 -11.222656 L 11.71875 -11.679688 L 13.339844 -11.679688 L 14.171875 -11.761719 L 16.375 -11.636719 L 17.496094 -11.71875 L 18.371094 -11.636719 L 19.117188 -11.679688 L 19.949219 -12.136719 L 20.367188 -12.925781 L 20.449219 -16.210938 L 20.367188 -17.039062 L 19.992188 -17.832031 L 19.285156 -18.289062 L 17.621094 -18.328125 L 16.792969 -18.246094 L 15.917969 -18.246094 L 14.960938 -18.328125 L 11.679688 -18.289062 L 10.972656 -18.746094 L 10.472656 -19.492188 L 10.390625 -20.78125 L 10.804688 -21.988281 L 12.09375 -22.359375 L 20.074219 -22.402344 L 20.949219 -22.859375 L 21.40625 -23.609375 L 21.320312 -25.3125 L 21.195312 -26.101562 L 21.238281 -27.015625 L 21.363281 -27.804688 L 20.949219 -28.636719 L 20.074219 -29.011719 L 16.75 -29.050781 L 16 -28.96875 L 15.171875 -29.09375 L 13.339844 -29.011719 L 12.511719 -29.09375 L 10.890625 -29.050781 L 10.140625 -29.136719 L 4.695312 -29.011719 L 3.492188 -28.71875 L 3.074219 -27.804688 L 3.160156 -26.144531 L 2.992188 -24.9375 L 3.160156 -22.816406 L 3.074219 -21.945312 L 3.160156 -21.195312 L 3.160156 -13.757812 L 3.035156 -12.882812 L 3.160156 -11.261719 L 3.074219 -9.601562 L 3.199219 -8.726562 L 3.117188 -7.8125 L 3.160156 -7.023438 L 3.035156 -6.277344 L 3.117188 -5.320312 L 3.117188 -4.488281 L 3.199219 -2.867188 L 3.160156 -2.035156 Z M 2.992188 -1.207031 "/></g></g></g><g fill="#000000" fill-opacity="1"><g transform="translate(228.651478, 190.780039)"><g><path d="M 12.054688 0.332031 L 13.257812 0.457031 L 14.589844 0.414062 L 18.660156 -0.375 L 20.824219 -1.539062 L 22.152344 -2.453125 L 23.316406 -3.78125 L 24.148438 -5.113281 L 24.480469 -5.859375 L 24.730469 -6.691406 L 24.855469 -7.441406 L 24.894531 -10.015625 L 24.769531 -10.847656 L 24.5625 -11.636719 L 23.730469 -13.175781 L 22.734375 -14.464844 L 22.027344 -15.046875 L 19.824219 -16.042969 L 16.417969 -16.875 L 12.21875 -17.414062 L 10.472656 -18.039062 L 9.851562 -18.371094 L 9.183594 -19.035156 L 9.144531 -20.15625 L 9.269531 -21.238281 L 9.726562 -21.820312 L 10.433594 -22.359375 L 11.015625 -22.609375 L 11.761719 -22.777344 L 14.421875 -22.859375 L 15.335938 -22.527344 L 15.960938 -22.027344 L 17.332031 -20.574219 L 18.621094 -20.15625 L 21.363281 -20.074219 L 22.109375 -20.15625 L 22.902344 -20.074219 L 23.691406 -20.574219 L 24.066406 -21.363281 L 23.730469 -22.984375 L 23.066406 -24.480469 L 22.527344 -25.144531 L 22.109375 -25.808594 L 21.570312 -26.433594 L 18.910156 -28.261719 L 16.625 -29.050781 L 15.753906 -29.21875 L 15.003906 -29.300781 L 14.089844 -29.507812 L 11.761719 -29.46875 L 8.480469 -28.804688 L 7.730469 -28.511719 L 7.066406 -28.097656 L 6.402344 -27.847656 L 5.570312 -27.347656 L 4.988281 -26.808594 L 4.238281 -26.308594 L 3.78125 -25.601562 L 3.242188 -25.0625 L 2.949219 -24.3125 L 2.535156 -23.648438 L 1.953125 -21.238281 L 1.996094 -18.453125 L 2.285156 -17.289062 L 2.828125 -15.835938 L 3.867188 -14.464844 L 5.027344 -13.382812 L 6.484375 -12.511719 L 8.851562 -11.71875 L 10.347656 -11.386719 L 13.757812 -11.140625 L 14.503906 -11.015625 L 15.335938 -10.972656 L 16.832031 -10.347656 L 17.414062 -9.851562 L 17.621094 -8.769531 L 17.375 -7.6875 L 16.707031 -7.105469 L 16.042969 -6.734375 L 14.503906 -6.277344 L 13.339844 -6.234375 L 12.09375 -6.316406 L 11.140625 -6.566406 L 10.515625 -6.859375 L 9.765625 -7.316406 L 9.144531 -7.898438 L 8.519531 -8.726562 L 7.6875 -9.0625 L 4.53125 -9.144531 L 3.699219 -9.0625 L 2.867188 -9.101562 L 2.035156 -8.726562 L 1.746094 -7.855469 L 1.828125 -6.941406 L 1.996094 -6.191406 L 2.660156 -4.53125 L 3.699219 -3.242188 L 4.90625 -2.035156 L 5.609375 -1.578125 L 8.601562 -0.207031 L 9.519531 -0.0820312 L 10.308594 0.207031 Z M 12.054688 0.332031 "/></g></g></g><g fill="#000000" fill-opacity="1"><g transform="translate(257.32757, 190.780039)"><g><path d="M 7.980469 -1.289062 L 8.3125 -0.414062 L 9.183594 0 L 9.976562 -0.0820312 L 10.804688 0 L 11.597656 -0.0820312 L 14.171875 -0.0820312 L 15.003906 -0.414062 L 15.335938 -1.246094 L 15.296875 -2.035156 L 15.378906 -2.992188 L 15.335938 -4.65625 L 15.210938 -5.363281 L 15.335938 -6.234375 L 15.417969 -8.769531 L 15.335938 -9.519531 L 15.460938 -11.261719 L 15.296875 -19.535156 L 15.417969 -20.367188 L 15.335938 -21.28125 L 15.667969 -22.027344 L 16.582031 -22.402344 L 17.289062 -22.445312 L 18.121094 -22.402344 L 18.871094 -22.484375 L 21.15625 -22.445312 L 22.109375 -22.816406 L 22.527344 -23.648438 L 22.445312 -24.523438 L 22.527344 -27.929688 L 22.109375 -28.761719 L 21.28125 -29.175781 L 20.28125 -29.09375 L 19.617188 -29.175781 L 18.828125 -29.175781 L 17.914062 -29.050781 L 17.082031 -29.050781 L 16.25 -29.136719 L 15.417969 -29.136719 L 14.464844 -29.011719 L 2.078125 -29.09375 L 1.164062 -28.679688 L 0.75 -27.847656 L 0.707031 -23.691406 L 1.164062 -22.777344 L 1.996094 -22.359375 L 3.074219 -22.484375 L 6.773438 -22.445312 L 7.523438 -21.988281 L 7.9375 -21.195312 L 8.0625 -16.625 L 7.9375 -15.335938 L 8.023438 -14.546875 L 7.9375 -13.714844 L 7.9375 -12.054688 L 8.0625 -10.847656 L 7.898438 -9.601562 L 7.9375 -8.769531 L 7.898438 -7.898438 L 8.023438 -5.363281 L 7.9375 -4.53125 Z M 7.980469 -1.289062 "/></g></g></g><g fill="#000000" fill-opacity="1"><g transform="translate(282.72051, 190.780039)"><g><path d="M 12.261719 0.332031 L 14.257812 0.5 L 16.335938 0.414062 L 17.996094 0.0429688 L 18.871094 -0.289062 L 19.699219 -0.5 L 20.367188 -0.914062 L 21.113281 -1.246094 L 21.777344 -1.703125 L 23.648438 -3.367188 L 24.105469 -4.113281 L 24.648438 -4.738281 L 24.894531 -5.570312 L 25.3125 -6.277344 L 25.601562 -7.066406 L 25.894531 -11.261719 L 25.769531 -14.628906 L 25.933594 -15.503906 L 25.933594 -16.25 L 25.769531 -17.082031 L 25.726562 -17.871094 L 25.808594 -18.746094 L 25.769531 -19.910156 L 25.851562 -21.195312 L 25.808594 -22.109375 L 25.933594 -22.902344 L 25.808594 -23.730469 L 25.851562 -27.097656 L 25.726562 -27.804688 L 25.394531 -28.71875 L 24.066406 -29.09375 L 20.15625 -29.136719 L 19.242188 -28.761719 L 18.828125 -27.847656 L 18.871094 -23.773438 L 18.785156 -22.941406 L 18.828125 -21.320312 L 18.746094 -20.449219 L 18.871094 -19.574219 L 18.746094 -16.292969 L 18.910156 -15.542969 L 18.828125 -14.628906 L 18.871094 -13.132812 L 18.785156 -12.300781 L 18.828125 -10.183594 L 18.660156 -8.851562 L 18.289062 -8.0625 L 17.914062 -7.480469 L 17.25 -6.859375 L 15.585938 -6.316406 L 14.464844 -6.234375 L 13.09375 -6.316406 L 12.34375 -6.523438 L 11.429688 -6.984375 L 10.804688 -7.523438 L 10.308594 -8.105469 L 10.058594 -8.976562 L 9.976562 -16.292969 L 9.851562 -17.125 L 9.808594 -19.699219 L 9.890625 -20.449219 L 9.890625 -23.773438 L 9.765625 -24.980469 L 9.765625 -25.769531 L 9.976562 -27.015625 L 9.976562 -27.886719 L 9.519531 -28.679688 L 8.519531 -29.050781 L 4.15625 -29.09375 L 3.324219 -28.636719 L 2.949219 -27.804688 L 2.949219 -25.3125 L 2.742188 -24.605469 L 2.910156 -22.859375 L 2.785156 -21.28125 L 2.992188 -18.785156 L 2.828125 -17.996094 L 2.949219 -17.082031 L 2.867188 -16.292969 L 2.910156 -15.460938 L 2.828125 -14.671875 L 2.949219 -13.007812 L 2.910156 -10.015625 L 3.035156 -8.8125 L 3.035156 -7.9375 L 3.285156 -7.105469 L 3.40625 -6.316406 L 3.65625 -5.527344 L 4.488281 -4.113281 L 5.609375 -2.742188 L 6.152344 -2.203125 L 7.5625 -1.371094 L 8.1875 -0.871094 L 8.976562 -0.539062 L 9.933594 -0.25 L 10.558594 0.0820312 L 11.472656 0.125 Z M 12.261719 0.332031 "/></g></g></g><g fill="#000000" fill-opacity="1"><g transform="translate(185.021823, 217.929792)"><g><path d="M 10.726562 0.0351562 L 11.417969 -0.0195312 L 11.761719 0.0195312 L 12.324219 0 L 12.835938 -0.0898438 L 12.890625 -0.527344 L 12.761719 -0.945312 L 12.488281 -1.617188 L 12 -2.5625 L 11.746094 -3.234375 L 11.378906 -3.890625 L 10.691406 -5.542969 L 10.507812 -5.816406 L 10.328125 -6.164062 L 10.21875 -6.5625 L 10.054688 -6.835938 L 9.945312 -7.125 L 9.5625 -7.800781 L 9.433594 -8.179688 L 8.234375 -10.707031 L 8.125 -11.070312 L 7.925781 -11.398438 L 7.816406 -11.726562 L 7.472656 -12.363281 L 7.164062 -12.691406 L 6.5625 -12.871094 L 5.980469 -12.671875 L 5.652344 -12.363281 L 5.492188 -12.054688 L 5.363281 -11.691406 L 5.199219 -11.433594 L 4.472656 -9.761719 L 4.273438 -9.488281 L 4.179688 -9.125 L 3.980469 -8.78125 L 3.871094 -8.453125 L 2.019531 -4.5625 L 1.910156 -4.164062 L 1.726562 -3.890625 L 1.601562 -3.527344 L 1.273438 -2.945312 L 1 -2.21875 L 0.800781 -1.964844 L 0.710938 -1.636719 L 0.34375 -0.910156 L 0.238281 -0.546875 L 0.328125 -0.0898438 L 0.691406 0.0195312 L 1.398438 -0.0195312 L 1.761719 0.0195312 L 2.78125 -0.0195312 L 3.199219 -0.144531 L 3.546875 -0.472656 L 3.871094 -1.074219 L 4.21875 -1.417969 L 4.597656 -1.617188 L 4.945312 -1.5625 L 5.707031 -1.636719 L 6.035156 -1.582031 L 7.816406 -1.601562 L 8.144531 -1.5625 L 8.542969 -1.617188 L 8.945312 -1.417969 L 9.289062 -1.128906 L 9.453125 -0.78125 L 9.5625 -0.453125 L 9.925781 -0.183594 L 10.34375 0 Z M 6.597656 -4.492188 L 6.234375 -4.5625 L 5.816406 -4.527344 L 5.527344 -4.652344 L 5.507812 -5 L 6.363281 -6.964844 L 6.5625 -7.125 L 6.816406 -6.980469 L 7.671875 -4.980469 L 7.597656 -4.652344 L 7.328125 -4.507812 Z M 6.597656 -4.492188 "/></g></g></g><g fill="#000000" fill-opacity="1"><g transform="translate(200.345619, 217.929792)"><g><path d="M 1.363281 -0.746094 L 1.546875 -0.183594 L 2.074219 0.0546875 L 2.4375 0 L 3.019531 0.0546875 L 3.308594 0.0195312 L 3.855469 0.0195312 L 4.4375 -0.164062 L 4.597656 -0.691406 L 4.597656 -1.308594 L 4.636719 -1.636719 L 4.582031 -2.019531 L 4.617188 -3.179688 L 4.78125 -3.546875 L 5.125 -3.746094 L 6.179688 -3.601562 L 6.542969 -3.289062 L 6.761719 -2.925781 L 6.910156 -2.601562 L 7.289062 -2.054688 L 7.636719 -1.398438 L 7.835938 -1.128906 L 7.980469 -0.761719 L 8.179688 -0.453125 L 8.582031 -0.128906 L 9.199219 0.0351562 L 10.636719 0.0195312 L 10.980469 0.0546875 L 11.582031 0.0351562 L 11.925781 -0.128906 L 12.035156 -0.527344 L 11.835938 -0.925781 L 11.617188 -1.183594 L 11.472656 -1.527344 L 10.851562 -2.453125 L 10.691406 -2.78125 L 10.109375 -3.726562 L 9.890625 -4 L 9.871094 -4.4375 L 10.035156 -4.835938 L 10.289062 -5.109375 L 10.542969 -5.328125 L 11.253906 -6.597656 L 11.488281 -7.652344 L 11.453125 -8.800781 L 11.398438 -9.164062 L 11.070312 -10.199219 L 10.925781 -10.507812 L 10.726562 -10.800781 L 9.691406 -11.890625 L 9.054688 -12.234375 L 8.363281 -12.472656 L 7.328125 -12.707031 L 6.746094 -12.726562 L 6.21875 -12.691406 L 5.125 -12.691406 L 4.761719 -12.761719 L 4.398438 -12.761719 L 4.074219 -12.671875 L 3.707031 -12.671875 L 3.34375 -12.742188 L 2.945312 -12.761719 L 1.871094 -12.671875 L 1.546875 -12.488281 L 1.328125 -11.980469 L 1.34375 -7.816406 L 1.382812 -7.453125 L 1.328125 -6.726562 L 1.34375 -6.328125 L 1.34375 -5.964844 L 1.382812 -5.617188 L 1.34375 -5.273438 L 1.328125 -3.800781 L 1.363281 -3.4375 Z M 5.125 -6.652344 L 4.761719 -6.855469 L 4.617188 -7.144531 L 4.617188 -8.234375 L 4.582031 -8.542969 L 4.617188 -9.308594 L 4.78125 -9.652344 L 5.164062 -9.800781 L 5.527344 -9.78125 L 6.253906 -9.855469 L 6.761719 -9.746094 L 7.234375 -9.707031 L 7.582031 -9.617188 L 8.035156 -9.054688 L 8.144531 -8.761719 L 8.21875 -8.289062 L 8.164062 -7.746094 L 8 -7.382812 L 7.800781 -7.109375 L 7.597656 -6.945312 L 7.273438 -6.800781 L 6.746094 -6.671875 L 6.398438 -6.652344 L 5.527344 -6.691406 Z M 5.125 -6.652344 "/></g></g></g><g fill="#000000" fill-opacity="1"><g transform="translate(215.087773, 217.929792)"><g><path d="M 1.890625 0.0546875 L 2.253906 0 L 2.964844 0.0351562 L 3.363281 -0.0195312 L 3.945312 0.0195312 L 4.453125 -0.199219 L 4.671875 -0.527344 L 4.617188 -2.4375 L 4.671875 -3 L 4.652344 -3.382812 L 4.691406 -4.035156 L 4.652344 -4.4375 L 4.652344 -5.144531 L 4.816406 -5.308594 L 5 -5.234375 L 5.289062 -5 L 5.507812 -4.726562 L 6.253906 -3.980469 L 6.492188 -3.691406 L 6.980469 -3.21875 L 7.363281 -2.945312 L 7.761719 -2.925781 L 8.125 -3.199219 L 8.382812 -3.472656 L 8.597656 -3.691406 L 9.109375 -4.289062 L 9.363281 -4.472656 L 10.109375 -5.234375 L 10.34375 -5.34375 L 10.488281 -5.070312 L 10.453125 -4.074219 L 10.507812 -3.34375 L 10.472656 -2.636719 L 10.507812 -1.964844 L 10.472656 -1.636719 L 10.507812 -0.816406 L 10.507812 -0.546875 L 10.652344 -0.128906 L 11.035156 -0.0195312 L 13.234375 0.0546875 L 13.617188 -0.144531 L 13.835938 -0.671875 L 13.78125 -1.617188 L 13.816406 -1.980469 L 13.78125 -7.4375 L 13.816406 -7.835938 L 13.796875 -9.636719 L 13.816406 -9.980469 L 13.78125 -10.761719 L 13.796875 -11.070312 L 13.78125 -11.816406 L 13.816406 -12.164062 L 13.597656 -12.542969 L 13.21875 -12.742188 L 12.691406 -12.582031 L 12.308594 -12.34375 L 11.542969 -11.542969 L 11.308594 -11.253906 L 11.089844 -11.054688 L 10.835938 -10.726562 L 9.234375 -9.089844 L 9 -8.78125 L 7.890625 -7.652344 L 7.5625 -7.4375 L 7.179688 -7.582031 L 6.964844 -7.890625 L 6.707031 -8.144531 L 6.382812 -8.5625 L 5.980469 -8.925781 L 4.328125 -10.761719 L 4.074219 -10.980469 L 3.601562 -11.542969 L 3.308594 -11.796875 L 2.835938 -12.289062 L 2.417969 -12.597656 L 1.910156 -12.742188 L 1.507812 -12.5625 L 1.308594 -12.179688 L 1.363281 -11.070312 L 1.308594 -10.363281 L 1.34375 -10.035156 L 1.328125 -7.125 L 1.363281 -6.761719 L 1.308594 -4.925781 L 1.34375 -4.582031 L 1.328125 -0.5625 L 1.527344 -0.183594 Z M 1.890625 0.0546875 "/></g></g></g><g fill="#000000" fill-opacity="1"><g transform="translate(232.410971, 217.929792)"><g><path d="M 10.726562 0.0351562 L 11.417969 -0.0195312 L 11.761719 0.0195312 L 12.324219 0 L 12.835938 -0.0898438 L 12.890625 -0.527344 L 12.761719 -0.945312 L 12.488281 -1.617188 L 12 -2.5625 L 11.746094 -3.234375 L 11.378906 -3.890625 L 10.691406 -5.542969 L 10.507812 -5.816406 L 10.328125 -6.164062 L 10.21875 -6.5625 L 10.054688 -6.835938 L 9.945312 -7.125 L 9.5625 -7.800781 L 9.433594 -8.179688 L 8.234375 -10.707031 L 8.125 -11.070312 L 7.925781 -11.398438 L 7.816406 -11.726562 L 7.472656 -12.363281 L 7.164062 -12.691406 L 6.5625 -12.871094 L 5.980469 -12.671875 L 5.652344 -12.363281 L 5.492188 -12.054688 L 5.363281 -11.691406 L 5.199219 -11.433594 L 4.472656 -9.761719 L 4.273438 -9.488281 L 4.179688 -9.125 L 3.980469 -8.78125 L 3.871094 -8.453125 L 2.019531 -4.5625 L 1.910156 -4.164062 L 1.726562 -3.890625 L 1.601562 -3.527344 L 1.273438 -2.945312 L 1 -2.21875 L 0.800781 -1.964844 L 0.710938 -1.636719 L 0.34375 -0.910156 L 0.238281 -0.546875 L 0.328125 -0.0898438 L 0.691406 0.0195312 L 1.398438 -0.0195312 L 1.761719 0.0195312 L 2.78125 -0.0195312 L 3.199219 -0.144531 L 3.546875 -0.472656 L 3.871094 -1.074219 L 4.21875 -1.417969 L 4.597656 -1.617188 L 4.945312 -1.5625 L 5.707031 -1.636719 L 6.035156 -1.582031 L 7.816406 -1.601562 L 8.144531 -1.5625 L 8.542969 -1.617188 L 8.945312 -1.417969 L 9.289062 -1.128906 L 9.453125 -0.78125 L 9.5625 -0.453125 L 9.925781 -0.183594 L 10.34375 0 Z M 6.597656 -4.492188 L 6.234375 -4.5625 L 5.816406 -4.527344 L 5.527344 -4.652344 L 5.507812 -5 L 6.363281 -6.964844 L 6.5625 -7.125 L 6.816406 -6.980469 L 7.671875 -4.980469 L 7.597656 -4.652344 L 7.328125 -4.507812 Z M 6.597656 -4.492188 "/></g></g></g><g fill="#000000" fill-opacity="1"><g transform="translate(247.734769, 217.929792)"><g><path d="M 10.726562 -0.308594 L 11.21875 -0.0195312 L 11.726562 0.0351562 L 12.125 -0.0898438 L 12.308594 -0.453125 L 12.34375 -7.089844 L 12.289062 -7.398438 L 12.289062 -9.199219 L 12.34375 -9.636719 L 12.289062 -12.164062 L 12.109375 -12.527344 L 11.746094 -12.726562 L 9.488281 -12.707031 L 9.144531 -12.507812 L 8.945312 -12.125 L 8.925781 -11.746094 L 8.980469 -11.453125 L 8.925781 -10.691406 L 8.960938 -10.289062 L 8.925781 -7.035156 L 8.816406 -6.726562 L 8.542969 -6.855469 L 7.253906 -8.144531 L 6.746094 -8.542969 L 3.164062 -12.164062 L 2.890625 -12.378906 L 2.472656 -12.597656 L 1.925781 -12.726562 L 1.507812 -12.542969 L 1.34375 -12.199219 L 1.34375 -6.691406 L 1.328125 -6.382812 L 1.363281 -5.636719 L 1.308594 -5.328125 L 1.34375 -2.34375 L 1.308594 -2 L 1.34375 -0.472656 L 1.507812 -0.128906 L 1.890625 0 L 2.636719 0.0351562 L 3.035156 0 L 3.746094 0.0546875 L 4.125 0.0351562 L 4.492188 -0.144531 L 4.671875 -0.710938 L 4.691406 -5.308594 L 4.726562 -5.671875 L 4.855469 -5.980469 L 5.089844 -5.890625 L 5.328125 -5.582031 L 6.617188 -4.34375 L 6.855469 -4.074219 L 7.164062 -3.871094 L 9.980469 -1.074219 L 10.453125 -0.546875 Z M 10.726562 -0.308594 "/></g></g></g><g fill="#000000" fill-opacity="1"><g transform="translate(263.567512, 217.929792)"><g><path d="M 5.597656 0.0546875 L 6.144531 0.0546875 L 6.707031 -0.0195312 L 7.070312 -0.0195312 L 7.597656 -0.183594 L 8.34375 -0.308594 L 9.199219 -0.671875 L 10.417969 -1.492188 L 11.308594 -2.636719 L 11.488281 -3 L 11.707031 -3.289062 L 12 -4 L 12.089844 -4.34375 L 12.164062 -4.726562 L 12.269531 -5.035156 L 12.324219 -5.398438 L 12.324219 -5.78125 L 12.378906 -6.363281 L 12.363281 -6.890625 L 12.109375 -8.328125 L 11.871094 -9.015625 L 11.726562 -9.363281 L 11.109375 -10.328125 L 10.144531 -11.398438 L 9.21875 -12.015625 L 8.871094 -12.21875 L 8.507812 -12.289062 L 8.199219 -12.433594 L 7.816406 -12.527344 L 6.746094 -12.691406 L 2.601562 -12.726562 L 2.273438 -12.671875 L 1.910156 -12.691406 L 1.507812 -12.527344 L 1.34375 -12.144531 L 1.328125 -1.980469 L 1.363281 -1.636719 L 1.363281 -0.710938 L 1.546875 -0.144531 L 1.910156 0.0351562 L 2.273438 0 L 4.492188 0.0351562 L 4.855469 -0.0195312 Z M 5.542969 -2.925781 L 5.199219 -2.964844 L 4.78125 -3.164062 L 4.636719 -3.507812 L 4.617188 -3.816406 L 4.636719 -4.5625 L 4.5625 -5.453125 L 4.636719 -6.363281 L 4.597656 -8.871094 L 4.636719 -9.179688 L 4.816406 -9.597656 L 5.398438 -9.726562 L 6.164062 -9.746094 L 6.691406 -9.691406 L 7.398438 -9.488281 L 7.726562 -9.328125 L 8 -9.125 L 8.273438 -8.871094 L 8.542969 -8.542969 L 8.726562 -8.234375 L 8.890625 -7.910156 L 9.179688 -6.308594 L 9 -5.035156 L 8.691406 -4.363281 L 8.015625 -3.601562 L 7.398438 -3.199219 L 6.871094 -3.035156 L 6.089844 -2.945312 Z M 5.542969 -2.925781 "/></g></g></g><g fill="#000000" fill-opacity="1"><g transform="translate(278.909491, 217.929792)"><g><path d="M 7.289062 0.238281 L 8.90625 0.0742188 L 9.597656 -0.144531 L 11.21875 -0.871094 L 12.488281 -2.089844 L 12.726562 -2.417969 L 13.433594 -3.671875 L 13.5625 -4.019531 L 13.617188 -4.382812 L 13.726562 -4.671875 L 13.796875 -5.070312 L 13.890625 -6.34375 L 13.796875 -7.597656 L 13.652344 -8.273438 L 13.507812 -8.652344 L 13.417969 -9.070312 L 13.089844 -9.671875 L 12.960938 -10 L 12.726562 -10.308594 L 12.507812 -10.527344 L 12.269531 -10.851562 L 11.488281 -11.5625 L 10.5625 -12.144531 L 8.179688 -12.890625 L 7.328125 -12.90625 L 6.054688 -12.835938 L 5.691406 -12.761719 L 5.328125 -12.652344 L 5 -12.507812 L 4.308594 -12.324219 L 3.382812 -11.746094 L 3.125 -11.527344 L 2.546875 -11.125 L 2.054688 -10.582031 L 1.4375 -9.671875 L 1.273438 -9.363281 L 0.925781 -8.363281 L 0.78125 -7.582031 L 0.710938 -5.472656 L 0.910156 -4.328125 L 1.183594 -3.707031 L 1.289062 -3.328125 L 1.472656 -3 L 2.328125 -1.835938 L 2.835938 -1.34375 L 3.074219 -1.074219 L 4.308594 -0.417969 L 4.652344 -0.273438 L 6.199219 0.183594 Z M 6.78125 -2.964844 L 6.417969 -3.089844 L 6.089844 -3.125 L 5.472656 -3.453125 L 4.910156 -3.945312 L 4.726562 -4.199219 L 4.492188 -4.453125 L 4.144531 -5.472656 L 4.054688 -6.382812 L 4.074219 -6.925781 L 4.199219 -7.597656 L 4.308594 -7.925781 L 4.527344 -8.179688 L 4.691406 -8.488281 L 4.925781 -8.78125 L 5.199219 -9.015625 L 5.726562 -9.378906 L 6.054688 -9.542969 L 6.4375 -9.636719 L 7.273438 -9.707031 L 8.144531 -9.652344 L 9.109375 -9.234375 L 9.671875 -8.816406 L 10.089844 -8.199219 L 10.234375 -7.871094 L 10.34375 -7.507812 L 10.472656 -7.179688 L 10.542969 -6.398438 L 10.433594 -5.492188 L 10.273438 -4.746094 L 10.070312 -4.472656 L 9.90625 -4.199219 L 9.691406 -3.871094 L 9.125 -3.4375 L 8.800781 -3.289062 L 8.507812 -3.125 L 8.179688 -3.089844 L 7.835938 -3 Z M 6.78125 -2.964844 "/></g></g></g></svg>